<svg xmlns="http://www.w3.org/2000/svg" width="40" height="40" viewBox="0 0 40 40">
  <defs>
    <style>
      .cls-1 {
        fill: #fff;
      }
    </style>
  </defs>
  <path id="成功" class="cls-1" d="M107.079,107.506a20.415,20.415,0,0,1-14.38,5.818A19.864,19.864,0,0,1,72.962,93.587a20.415,20.415,0,0,1,5.818-14.38A19.556,19.556,0,0,1,92.7,73.324a20.089,20.089,0,0,1,20.263,20.263A19.489,19.489,0,0,1,107.079,107.506ZM89.33,101.114a.91.91,0,0,0,.608.279.73.73,0,0,0,.608-.247l13.311-13.081a.823.823,0,0,0,.263-.608.8.8,0,0,0-.263-.608l.082.082a.954.954,0,0,0-.641-.279.886.886,0,0,0-.674.247L90.6,96.923a.989.989,0,0,1-.657.214,1.457,1.457,0,0,1-.707-.181l-4.289-3.32a.958.958,0,0,0-.657-.181.8.8,0,0,0-.575.345l-.131.181a.978.978,0,0,0-.181.674,1.242,1.242,0,0,0,.263.641Z" transform="translate(-72.962 -73.324)"/>
</svg>
