<svg xmlns="http://www.w3.org/2000/svg" width="68.257" height="78.513" viewBox="0 0 68.257 78.513">
  <defs>
    <style>
      .cls-1 {
        fill: #fff;
      }
    </style>
  </defs>
  <g id="进入" transform="translate(-651.555 -957.764)">
    <g id="组_17" data-name="组 17">
      <path id="路径_26" data-name="路径 26" class="cls-1" d="M691.582,997.918a1.918,1.918,0,1,1,0-3.836h4.233a1.918,1.918,0,1,1,0,3.836Z"/>
    </g>
    <g id="组_18" data-name="组 18">
      <path id="路径_27" data-name="路径 27" class="cls-1" d="M665.026,994.082a1.893,1.893,0,0,1-1.918-1.862V968.7a6.984,6.984,0,0,1,7.141-6.8h9.136a1.862,1.862,0,1,1,0,3.722h-9.136a3.2,3.2,0,0,0-3.305,3.075V992.22A1.892,1.892,0,0,1,665.026,994.082Z"/>
    </g>
    <g id="组_19" data-name="组 19" transform="translate(0 1.273)">
      <path id="路径_28" data-name="路径 28" class="cls-1" d="M670.249,1030.863a6.956,6.956,0,0,1-7.141-6.737v-23.479a1.919,1.919,0,0,1,3.836,0v23.479a3.188,3.188,0,0,0,3.305,3.046H679.9a1.847,1.847,0,1,1,0,3.691Z"/>
    </g>
    <g id="组_20" data-name="组 20">
      <path id="路径_29" data-name="路径 29" class="cls-1" d="M692.05,1036.277a7.725,7.725,0,0,1-7.794-7.638V965.4a7.726,7.726,0,0,1,7.794-7.639h.1l20.247,4.074c3.708.87,7.416,3.554,7.416,7.6V1024.6c0,2.069-.946,5.8-7.28,7.566l-20.1,4.071A1.931,1.931,0,0,1,692.05,1036.277Zm-.272-74.693a3.876,3.876,0,0,0-3.685,3.819v63.236a3.893,3.893,0,0,0,3.783,3.8l19.763-4c2.853-.8,4.336-2.1,4.336-3.838V969.439c0-1.851-2.211-3.34-4.4-3.853Z"/>
    </g>
    <g id="组_21" data-name="组 21">
      <path id="路径_30" data-name="路径 30" class="cls-1" d="M653.474,998.938a1.917,1.917,0,1,1,0-3.835h23.314a1.917,1.917,0,1,1,0,3.835Z"/>
    </g>
    <g id="组_24" data-name="组 24">
      <g id="组_22" data-name="组 22">
        <path id="路径_31" data-name="路径 31" class="cls-1" d="M677.685,998.938a1.918,1.918,0,0,1-1.669-.973l-5.441-9.585a1.92,1.92,0,0,1,.719-2.614,1.917,1.917,0,0,1,2.617.722l5.442,9.586a1.918,1.918,0,0,1-1.668,2.864Z"/>
      </g>
      <g id="组_23" data-name="组 23">
        <path id="路径_32" data-name="路径 32" class="cls-1" d="M672.243,1008.526a1.936,1.936,0,0,1-.941-.246,1.919,1.919,0,0,1-.726-2.62l5.441-9.586a1.918,1.918,0,1,1,3.335,1.9l-5.441,9.585A1.917,1.917,0,0,1,672.243,1008.526Z"/>
      </g>
    </g>
  </g>
</svg>
