<svg xmlns="http://www.w3.org/2000/svg" xmlns:xlink="http://www.w3.org/1999/xlink" width="152" height="138" viewBox="0 0 152 138">
  <defs>
    <style>
      .cls-1 {
        fill: #00c4aa;
      }

      .cls-2 {
        clip-path: url(#clip-path);
      }

      .cls-3 {
        opacity: 0.2;
      }

      .cls-4 {
        fill: #fff;
      }
    </style>
    <clipPath id="clip-path">
      <path id="矩形_16" data-name="矩形 16" class="cls-1" d="M0,0H152a0,0,0,0,1,0,0V118a20,20,0,0,1-20,20H0a0,0,0,0,1,0,0V0A0,0,0,0,1,0,0Z" transform="translate(412 384)"/>
    </clipPath>
  </defs>
  <g id="车辆离开" class="cls-2" transform="translate(-412 -384)">
    <g id="组_15" data-name="组 15" class="cls-3" transform="translate(411.768 384)">
      <path id="路径_23" data-name="路径 23" class="cls-4" d="M698.019,740.686m-15.353,0a15.353,15.353,0,1,0,15.353-15.353A15.353,15.353,0,0,0,682.667,740.686Z" transform="translate(-559.845 -617.865)"/>
      <path id="路径_24" data-name="路径 24" class="cls-4" d="M186.019,740.686m-15.353,0a15.353,15.353,0,1,0,15.353-15.353A15.353,15.353,0,0,0,170.667,740.686Z" transform="translate(-139.961 -617.865)"/>
      <path id="路径_25" data-name="路径 25" class="cls-4" d="M141.628,151.029H126.659V139.514A11.309,11.309,0,0,0,115.145,128H11.515A11.309,11.309,0,0,0,0,139.514v99.792a11.309,11.309,0,0,0,11.514,11.514H23.029a23.029,23.029,0,0,1,46.058,0h46.058a23.029,23.029,0,0,1,46.058,0h11.514a11.309,11.309,0,0,0,11.514-11.514V186.34a11.446,11.446,0,0,0-4.606-9.212l-31.089-23.8A11.5,11.5,0,0,0,141.628,151.029Zm34.927,53.734h-49.9V158.705h11.514a10.716,10.716,0,0,1,6.909,2.3l26.867,20.726a12.021,12.021,0,0,1,4.606,9.212Z" transform="translate(0 -128)"/>
    </g>
  </g>
</svg>
