<svg id="离开" xmlns="http://www.w3.org/2000/svg" width="69.257" height="78.513" viewBox="0 0 69.257 78.513">
  <defs>
    <style>
      .cls-1 {
        fill: #fff;
      }
    </style>
  </defs>
  <g id="组_17" data-name="组 17" transform="translate(22.078 36.318)">
    <path id="路径_26" data-name="路径 26" class="cls-1" d="M695.815,997.918a1.918,1.918,0,1,0,0-3.836h-4.233a1.918,1.918,0,1,0,0,3.836Z" transform="translate(-689.663 -994.082)"/>
  </g>
  <g id="组_18" data-name="组 18" transform="translate(38.509 4.141)">
    <path id="路径_27" data-name="路径 27" class="cls-1" d="M679.385,994.082a1.893,1.893,0,0,0,1.918-1.862V968.7a6.984,6.984,0,0,0-7.141-6.8h-9.136a1.862,1.862,0,1,0,0,3.722h9.136a3.2,3.2,0,0,1,3.305,3.075V992.22A1.892,1.892,0,0,0,679.385,994.082Z" transform="translate(-663.108 -961.905)"/>
  </g>
  <g id="组_19" data-name="组 19" transform="translate(37.993 42.312)">
    <path id="路径_28" data-name="路径 28" class="cls-1" d="M674.678,1030.863a6.956,6.956,0,0,0,7.141-6.737v-23.479a1.919,1.919,0,0,0-3.836,0v23.479a3.188,3.188,0,0,1-3.305,3.046h-9.652a1.847,1.847,0,1,0,0,3.691Z" transform="translate(-663.108 -998.803)"/>
  </g>
  <g id="组_20" data-name="组 20" transform="translate(0)">
    <path id="路径_29" data-name="路径 29" class="cls-1" d="M712.018,1036.277a7.725,7.725,0,0,0,7.794-7.638V965.4a7.726,7.726,0,0,0-7.794-7.639h-.1l-20.247,4.074c-3.708.87-7.416,3.554-7.416,7.6V1024.6c0,2.069.946,5.8,7.28,7.566l20.1,4.071A1.931,1.931,0,0,0,712.018,1036.277Zm.272-74.693a3.876,3.876,0,0,1,3.685,3.819v63.236a3.893,3.893,0,0,1-3.783,3.8l-19.763-4c-2.853-.8-4.336-2.1-4.336-3.838V969.439c0-1.851,2.211-3.34,4.4-3.853Z" transform="translate(-684.256 -957.764)"/>
  </g>
  <g id="组_21" data-name="组 21" transform="translate(41.208 37.339)">
    <path id="路径_30" data-name="路径 30" class="cls-1" d="M653.474,998.938a1.917,1.917,0,1,1,0-3.835h23.314a1.917,1.917,0,1,1,0,3.835Z" transform="translate(-651.555 -995.103)"/>
  </g>
  <g id="组_24" data-name="组 24" transform="translate(59.978 27.751)">
    <g id="组_22" data-name="组 22" transform="translate(0)">
      <path id="路径_31" data-name="路径 31" class="cls-1" d="M677.685,998.938a1.918,1.918,0,0,1-1.669-.973l-5.441-9.585a1.92,1.92,0,0,1,.719-2.614,1.917,1.917,0,0,1,2.617.722l5.442,9.586a1.918,1.918,0,0,1-1.668,2.864Z" transform="translate(-670.324 -985.515)"/>
    </g>
    <g id="组_23" data-name="组 23" transform="translate(0 9.587)">
      <path id="路径_32" data-name="路径 32" class="cls-1" d="M672.243,1008.526a1.936,1.936,0,0,1-.941-.246,1.919,1.919,0,0,1-.726-2.62l5.441-9.586a1.918,1.918,0,1,1,3.335,1.9l-5.441,9.585A1.917,1.917,0,0,1,672.243,1008.526Z" transform="translate(-670.324 -995.102)"/>
    </g>
  </g>
</svg>
