<svg xmlns="http://www.w3.org/2000/svg" width="810.001" height="460" viewBox="0 0 810.001 460">
  <defs>
    <style>
      .cls-1 {
        fill: #fff;
      }

      .cls-2 {
        fill: none;
        stroke: #bebebe;
        stroke-linecap: round;
        stroke-width: 2px;
        stroke-dasharray: 2 8;
      }
    </style>
  </defs>
  <g id="票单" transform="translate(-162.002 626) rotate(-90)">
    <path id="减去_5" data-name="减去 5" class="cls-1" d="M-420-388h-7a4.972,4.972,0,0,0-1.466-3.537A4.965,4.965,0,0,0-432-393a5.006,5.006,0,0,0-5,5l-5,0a4.972,4.972,0,0,0-1.466-3.537A4.965,4.965,0,0,0-447-393a5.006,5.006,0,0,0-5,5l-5,0a4.972,4.972,0,0,0-1.466-3.537A4.964,4.964,0,0,0-462-393a5.006,5.006,0,0,0-5,5l-5,0a4.972,4.972,0,0,0-1.466-3.537A4.965,4.965,0,0,0-477-393a5.006,5.006,0,0,0-5,5l-5,0a4.972,4.972,0,0,0-1.466-3.536A4.965,4.965,0,0,0-492-393a5.006,5.006,0,0,0-5,5l-5,0a4.972,4.972,0,0,0-1.466-3.536A4.964,4.964,0,0,0-507-393a5.006,5.006,0,0,0-5,5l-5,0a4.973,4.973,0,0,0-1.466-3.536A4.965,4.965,0,0,0-522-393a5.006,5.006,0,0,0-5,5l-5,0a4.973,4.973,0,0,0-1.466-3.536A4.965,4.965,0,0,0-537-393a5.006,5.006,0,0,0-5,5l-5,0a4.972,4.972,0,0,0-1.466-3.536A4.964,4.964,0,0,0-552-393a5.006,5.006,0,0,0-5,5l-5,0a4.972,4.972,0,0,0-1.466-3.536A4.965,4.965,0,0,0-567-393a5.006,5.006,0,0,0-5,5l-5,0a4.972,4.972,0,0,0-1.466-3.536A4.965,4.965,0,0,0-582-393a5.006,5.006,0,0,0-5,5l-5,0a4.972,4.972,0,0,0-1.466-3.536A4.964,4.964,0,0,0-597-393a5.006,5.006,0,0,0-5,5l-5,0a4.972,4.972,0,0,0-1.466-3.536A4.965,4.965,0,0,0-612-393a5.006,5.006,0,0,0-5,5l-5,0a4.972,4.972,0,0,0-1.466-3.536A4.965,4.965,0,0,0-627-393a5.006,5.006,0,0,0-5,5l-5,0a4.972,4.972,0,0,0-1.466-3.536A4.964,4.964,0,0,0-642-393a5.006,5.006,0,0,0-5,5l-5,0a4.972,4.972,0,0,0-1.466-3.536A4.965,4.965,0,0,0-657-393a5.006,5.006,0,0,0-5,5l-5,0a4.972,4.972,0,0,0-1.466-3.536A4.966,4.966,0,0,0-672-393a5.006,5.006,0,0,0-5,5l-5,0a4.972,4.972,0,0,0-1.466-3.536A4.964,4.964,0,0,0-687-393a5.006,5.006,0,0,0-5,5l-5,0a4.972,4.972,0,0,0-1.466-3.536A4.965,4.965,0,0,0-702-393a5.006,5.006,0,0,0-5,5l-5,0a4.972,4.972,0,0,0-1.466-3.536A4.966,4.966,0,0,0-717-393a5.006,5.006,0,0,0-5,5l-5,0a4.972,4.972,0,0,0-1.466-3.536A4.964,4.964,0,0,0-732-393a5.006,5.006,0,0,0-5,5l-5,0a4.971,4.971,0,0,0-1.466-3.536A4.965,4.965,0,0,0-747-393a5.006,5.006,0,0,0-5,5l-5,0a4.972,4.972,0,0,0-1.466-3.536A4.966,4.966,0,0,0-762-393a5.006,5.006,0,0,0-5,5l-5,0a4.972,4.972,0,0,0-1.466-3.536A4.964,4.964,0,0,0-777-393a5.006,5.006,0,0,0-5,5l-5,0a4.971,4.971,0,0,0-1.466-3.536A4.965,4.965,0,0,0-792-393a5.006,5.006,0,0,0-5,5l-5,0a4.972,4.972,0,0,0-1.466-3.536A4.966,4.966,0,0,0-807-393a5.006,5.006,0,0,0-5,5l-5,0a4.971,4.971,0,0,0-1.466-3.536A4.964,4.964,0,0,0-822-393a5.006,5.006,0,0,0-5,5l-5,0a4.971,4.971,0,0,0-1.466-3.536A4.966,4.966,0,0,0-837-393a5.006,5.006,0,0,0-5,5l-5,0a4.971,4.971,0,0,0-1.466-3.536A4.966,4.966,0,0,0-852-393a5.006,5.006,0,0,0-5,5l-5,0a4.971,4.971,0,0,0-1.466-3.536A4.964,4.964,0,0,0-867-393a5.006,5.006,0,0,0-5,5l-8,0V-781a11.921,11.921,0,0,0,8.482-3.52A11.917,11.917,0,0,0-868-793a12.013,12.013,0,0,0-12-12v-393h8a4.967,4.967,0,0,0,1.467,3.532A4.965,4.965,0,0,0-867-1193a5.006,5.006,0,0,0,5-5h5a4.968,4.968,0,0,0,1.467,3.532A4.965,4.965,0,0,0-852-1193a5.006,5.006,0,0,0,5-5h5a5.005,5.005,0,0,0,5,5,5.005,5.005,0,0,0,5-5h5a5.005,5.005,0,0,0,5,5,5.006,5.006,0,0,0,5-5h5a4.968,4.968,0,0,0,1.467,3.532A4.966,4.966,0,0,0-807-1193a5.006,5.006,0,0,0,5-5h5a5.005,5.005,0,0,0,5,5,5.005,5.005,0,0,0,5-5h5a5.005,5.005,0,0,0,5,5,5.006,5.006,0,0,0,5-5h5a4.968,4.968,0,0,0,1.467,3.532A4.966,4.966,0,0,0-762-1193a5.006,5.006,0,0,0,5-5h5a5.005,5.005,0,0,0,5,5,5.005,5.005,0,0,0,5-5h5a5.005,5.005,0,0,0,5,5,5.006,5.006,0,0,0,5-5h5a4.968,4.968,0,0,0,1.467,3.532A4.966,4.966,0,0,0-717-1193a5.006,5.006,0,0,0,5-5h5a5.005,5.005,0,0,0,5,5,5.005,5.005,0,0,0,5-5h5a5.005,5.005,0,0,0,5,5,5.006,5.006,0,0,0,5-5h5a4.968,4.968,0,0,0,1.467,3.532A4.966,4.966,0,0,0-672-1193a5.006,5.006,0,0,0,5-5h5a4.967,4.967,0,0,0,1.467,3.532A4.967,4.967,0,0,0-657-1193a5.005,5.005,0,0,0,5-5h5a5.005,5.005,0,0,0,5,5,5.006,5.006,0,0,0,5-5h5a5.005,5.005,0,0,0,5,5,5.006,5.006,0,0,0,5-5h5a4.967,4.967,0,0,0,1.467,3.532A4.967,4.967,0,0,0-612-1193a5.005,5.005,0,0,0,5-5h5a5.005,5.005,0,0,0,5,5,5.006,5.006,0,0,0,5-5h5a5.005,5.005,0,0,0,5,5,5.006,5.006,0,0,0,5-5h5a5.006,5.006,0,0,0,5,5,5.005,5.005,0,0,0,5-5h5a5.005,5.005,0,0,0,5,5,5.006,5.006,0,0,0,5-5h5a5.005,5.005,0,0,0,5,5,5.006,5.006,0,0,0,5-5h5a5.006,5.006,0,0,0,5,5,5.005,5.005,0,0,0,5-5h5a4.967,4.967,0,0,0,1.467,3.532A4.965,4.965,0,0,0-507-1193a5.006,5.006,0,0,0,5-5h5a4.967,4.967,0,0,0,1.467,3.532A4.965,4.965,0,0,0-492-1193a5.006,5.006,0,0,0,5-5h5a4.967,4.967,0,0,0,1.467,3.532A4.967,4.967,0,0,0-477-1193a5.005,5.005,0,0,0,5-5h5a4.967,4.967,0,0,0,1.467,3.532A4.965,4.965,0,0,0-462-1193a5.006,5.006,0,0,0,5-5h5a4.967,4.967,0,0,0,1.467,3.532A4.965,4.965,0,0,0-447-1193a5.006,5.006,0,0,0,5-5h5a5.005,5.005,0,0,0,5,5,5.006,5.006,0,0,0,5-5h7v393a11.922,11.922,0,0,0-8.482,3.519A11.915,11.915,0,0,0-432-793a12.014,12.014,0,0,0,12,12v393Z" transform="translate(1046 1360)"/>
    <line id="直线_1" data-name="直线 1" class="cls-2" x2="430" transform="translate(181.501 567)"/>
  </g>
</svg>
