<svg xmlns="http://www.w3.org/2000/svg" xmlns:xlink="http://www.w3.org/1999/xlink" width="768" height="647" viewBox="0 0 768 647"><defs><clipPath id="a"><rect width="768" height="67" transform="translate(0 481)" fill="none"/></clipPath></defs><rect width="768" height="645" fill="#fd9541"/><g transform="translate(0 99)" clip-path="url(#a)"><path d="M828.459,371.075c-82.065,0-64.6-42.175-140-42.175s-81.133,65-159.23,65-86.58-65-167.692-65-139.134,65-197.692,65S0,334.922,0,334.922V458.7H768.3Z" transform="translate(0 152)" fill="rgba(255,255,255,0.33)"/><path d="M691.538,400.307c-58.463-34.616-84.6-71.407-160-71.407s-100.364,71.407-178.461,71.407S281.112,328.9,200,328.9s-80.673,71.407-139.231,71.407S-67.692,328.9-67.692,328.9L0,458.7H768.3Z" transform="translate(0 152)" fill="rgba(255,255,255,0.66)"/><path d="M768.3,328.9c-82.065,0-89.7,65-165.1,65s-87-65-165.1-65-76.188,65-157.3,65-102.642-65-161.2-65S0,393.9,0,393.9v64.8H768.3Z" transform="translate(0 152)" fill="#fff"/></g></svg>