<svg xmlns="http://www.w3.org/2000/svg" xmlns:xlink="http://www.w3.org/1999/xlink" width="297.921" height="211.484" viewBox="0 0 297.921 211.484">
  <defs>
    <style>
      .cls-1 {
        fill: #7b5f56;
      }

      .cls-2 {
        fill: url(#linear-gradient);
      }

      .cls-3 {
        fill: #ffbd88;
      }

      .cls-4 {
        fill: url(#linear-gradient-2);
      }

      .cls-5 {
        fill: #fd9541;
      }

      .cls-6 {
        fill: url(#linear-gradient-3);
      }
    </style>
    <linearGradient id="linear-gradient" x1="0.334" y1="1.761" x2="0.504" y2="0.465" gradientUnits="objectBoundingBox">
      <stop offset="0" stop-color="#fff" stop-opacity="0"/>
      <stop offset="1" stop-color="#e50012"/>
    </linearGradient>
    <linearGradient id="linear-gradient-2" x1="0.27" y1="1.579" x2="0.793" y2="-0.341" gradientUnits="objectBoundingBox">
      <stop offset="0" stop-color="#fd9541" stop-opacity="0.2"/>
      <stop offset="1" stop-color="#ff7a0e"/>
    </linearGradient>
    <linearGradient id="linear-gradient-3" x1="0.469" y1="0.697" x2="0.823" y2="-1.003" gradientUnits="objectBoundingBox">
      <stop offset="0" stop-color="#e50012" stop-opacity="0"/>
      <stop offset="1" stop-color="#e50012"/>
    </linearGradient>
  </defs>
  <g id="扫码" transform="translate(-194.204 -76.979)">
    <path id="路径_38" data-name="路径 38" class="cls-1" d="M366.215,130.862h-3l-7.3-3.559s-1.872-3.263,4.121-6.782S418.47,88.908,458.55,80.667s59-.937,63.68,5.056,4.5,6.556,6.181,8.991.187,4.307-2.06,5.993c0,0-.562,12.173-1.686,16.482s-4.12,4.869-6.368,6.181-6.556,3.184-6.556,3.184-.937,5.994.936,9.552,11.8,23.224,23.224,49.258,20.6,55.439,18.542,60.308-36.9,41.579-40.83,42.7-26.783-8.8-26.783-8.8-6.18-2.061-1.124-7.3c0,0-3.184-.75,2.248-8.242s9.74-9.738,11.987-17.792,2.622-12.737.749-15.921-29.4-45.886-29.4-45.886-3.559.936-9.552-.188-6.355-4.5-6.548-8.8.18-10.3-3.379-15.545c0,0-9.364,5.244-19.478,5.244s-41.2-11.05-49.445-16.482-11.425-7.718-12.923-10.882S366.215,130.862,366.215,130.862Z" transform="translate(-62.61)"/>
    <path id="路径_39" data-name="路径 39" class="cls-2" d="M386.024,171.651l-3.079-5.947s3.57.629,28.2,5.317S445.071,181.8,445.071,181.8s4.686,6.576,3.847,7-23.647-3.568-40.087-8.255S386.024,171.651,386.024,171.651Z" transform="translate(-73.201 -34.411)"/>
    <path id="路径_40" data-name="路径 40" class="cls-3" d="M528.416,94.715c-1.686-2.435-1.5-3-6.181-8.991s-23.6-13.3-63.68-5.056S366.033,117,360.04,120.521c-3.482,2.045-4.308,4-4.389,5.284.175-.015,4.178-.292,26.677,3.184,23.037,3.56,50.756,13.864,50.756,13.864l3.908,3.743,5.269,1.685s64.617-42.141,84.095-47.572C528.6,99.022,530.1,97.15,528.416,94.715Z" transform="translate(-62.615)"/>
    <path id="路径_41" data-name="路径 41" class="cls-4" d="M528.416,94.715c-1.686-2.435-1.5-3-6.181-8.991s-23.6-13.3-63.68-5.056S366.033,117,360.04,120.521c-3.482,2.045-4.308,4-4.389,5.284.175-.015,4.178-.292,26.677,3.184,23.037,3.56,50.756,13.864,50.756,13.864l3.908,3.743,5.269,1.685s64.617-42.141,84.095-47.572C528.6,99.022,530.1,97.15,528.416,94.715Z" transform="translate(-62.615)"/>
    <path id="路径_42" data-name="路径 42" class="cls-5" d="M538.724,212.27c-2.95-8.148-10.675-15.452-10.675-15.452l-15.311,9.552c3.559,5.244,3.185,11.237,3.379,15.545s.555,7.679,6.548,8.8,9.552.188,9.552.188C539.755,227.769,541.674,220.417,538.724,212.27Z" transform="translate(-123.539 -46.478)"/>
    <path id="路径_43" data-name="路径 43" class="cls-5" d="M603.564,205.868h0s19.933,71.862,21.961,78.679-1.474,14.56-7.556,23.591-19.9,22.484-19.9,22.484-2.95,1.474-4.976,0-4.239-2.948-4.239-1.659-2.765,1.843-4.054-.368-4.055-4.24-4.239-3.134-2.027,3.133-3.5,1.29-4.608-4.238-5.161-3.317-2.4.184-3.5-1.29c-.269-.359-1.109-.476-2.219-.45a1.2,1.2,0,0,0,.68.562c-5.057,5.244,1.124,7.3,1.124,7.3s22.85,9.926,26.783,8.8,38.77-37.833,40.83-42.7-7.117-34.274-18.542-60.308C612.093,224.06,607.421,213.969,603.564,205.868Z" transform="translate(-143.756 -49.988)"/>
    <path id="路径_44" data-name="路径 44" class="cls-6" d="M309.744,167.735,194.2,227.319l121.073,44.93,60.44-81.426-3.847-7S364.331,175.863,309.744,167.735Z" transform="translate(0 -35.198)"/>
  </g>
</svg>
