<svg xmlns="http://www.w3.org/2000/svg" width="20" height="23.75" viewBox="0 0 20 23.75">
  <defs>
    <style>
      .cls-1 {
        fill: #fd9541;
      }
    </style>
  </defs>
  <path id="路径_12" data-name="路径 12" class="cls-1" d="M154.835,68.033a1.56,1.56,0,0,0-1.049-.4c-.035,0-.071,0-.106,0s-.269.017-.655.017a14.115,14.115,0,0,1-3.074-.325c-1.529-.364-3.293-2.048-3.807-2.38a1.583,1.583,0,0,0-1.708,0,9.845,9.845,0,0,1-3.717,2.383,14.3,14.3,0,0,1-3.1.325c-.386,0-.633-.015-.657-.017s-.067,0-.1,0a1.569,1.569,0,0,0-1.052.4,1.464,1.464,0,0,0-.488,1.086v3.718c0,13.745,9.3,15.515,9.694,15.586a1.689,1.689,0,0,0,.544,0c.395-.071,9.763-1.841,9.763-15.586V69.12a1.463,1.463,0,0,0-.489-1.086ZM151.4,73.351l-6.447,6.238a.907.907,0,0,1-.15.188,1.02,1.02,0,0,1-1.374,0,.91.91,0,0,1-.15-.188l-3.445-3.335a.887.887,0,0,1,0-1.284.964.964,0,0,1,1.329,0l2.953,2.859,5.956-5.762a.963.963,0,0,1,1.328,0,.887.887,0,0,1,0,1.284Z" transform="translate(-135.324 -64.696)"/>
</svg>
